<!DOCTYPE svg PUBLIC "-//W3C//DTD SVG 1.1//EN" "http://www.w3.org/Graphics/SVG/1.1/DTD/svg11.dtd">
<!-- Uploaded to: SVG Repo, www.svgrepo.com, Transformed by: SVG Repo Mixer Tools -->
<svg fill="#000000" version="1.1" id="Layer_1" xmlns="http://www.w3.org/2000/svg" xmlns:xlink="http://www.w3.org/1999/xlink" viewBox="0 0 512 512" xml:space="preserve" width="800px" height="800px" stroke="#000000" stroke-width="0.00512">
<g id="SVGRepo_bgCarrier" stroke-width="0"/>
<g id="SVGRepo_tracerCarrier" stroke-linecap="round" stroke-linejoin="round"/>
<g id="SVGRepo_iconCarrier"> <g> <g> <path d="M474.056,80.593H37.944C17.019,80.593,0,97.606,0,118.523v237.028c0,20.917,17.019,37.931,37.944,37.931h436.111 c20.926,0,37.944-17.014,37.944-37.931V118.523C512,97.606,494.981,80.593,474.056,80.593z M493.037,355.551 c0,10.458-8.518,18.968-18.981,18.968H37.944c-10.463,0-18.981-8.509-18.981-18.968V118.523c0-10.459,8.519-18.968,18.981-18.968 h436.111c10.463,0,18.981,8.509,18.981,18.968V355.551z"/> </g> </g> <g> <g> <rect x="18.963" y="412.444" width="474.074" height="18.963"/> </g> </g> <g> <g> <path d="M92.037,130.778c-3.704-3.704-9.704-3.704-13.407,0l-28.444,28.444c-3.704,3.704-3.704,9.704,0,13.407 c1.852,1.852,4.278,2.778,6.704,2.778c2.426,0,4.852-0.926,6.704-2.778l28.444-28.444 C95.741,140.481,95.741,134.482,92.037,130.778z"/> </g> </g> <g> <g> <path d="M163.259,140.259c-3.704-3.704-9.704-3.704-13.407,0l-99.667,99.666c-3.704,3.704-3.704,9.704,0,13.408 c1.852,1.852,4.278,2.778,6.704,2.778c2.426,0,4.852-0.926,6.704-2.778l99.667-99.667 C166.963,149.963,166.963,143.963,163.259,140.259z"/> </g> </g> </g>
</svg>